# xmcd CD database file
#
# Track frame offsets:
#	150
#	27152
#	55897
#	91737
#	107937
#	128913
#	170589
#	187296
#	199460
#	213769
#	224903
#	265142
#	293902
#
# Disc length: 4159 seconds
#
# Revision: 0
# Processed by: cddbd v1.5.1PL0 Copyright (c) Steve Scherf et al.
# Submitted via: CDex 1.50beta9
#
DISCID=d2103d0d
DTITLE=Autumn's Child - Progressive World
DYEAR=2002
DGENRE=New Age
TTITLE0=The Distance Between
TTITLE1=Good Things Happen When It Rains
TTITLE2=Sky Circles
TTITLE3=Wacheva
TTITLE4=Sojourner's End
TTITLE5=Dream Sequence
TTITLE6=Child's Play
TTITLE7=A Seeking Heart
TTITLE8=Narrow Path
TTITLE9=Directions
TTITLE10=Spheres
TTITLE11=Inquire, Learn, Reflect
TTITLE12=From Here On Out...
EXTD=YEAR: 2002
EXTT0=
EXTT1=
EXTT2=
EXTT3=
EXTT4=
EXTT5=
EXTT6=
EXTT7=
EXTT8=
EXTT9=
EXTT10=
EXTT11=
EXTT12=
PLAYORDER=
